<?xml version="1.0" standalone="no"?><!DOCTYPE svg PUBLIC "-//W3C//DTD SVG 1.1//EN" "http://www.w3.org/Graphics/SVG/1.1/DTD/svg11.dtd"><svg t="1761909782393" class="icon" viewBox="0 0 1081 1024" version="1.1" xmlns="http://www.w3.org/2000/svg" p-id="5626" xmlns:xlink="http://www.w3.org/1999/xlink" width="211.1328125" height="200"><path d="M683.160578 946.91993l-5.487902-2.328201-7.649802-4.490101a96.786625 96.786625 0 0 1-59.036515-88.471623v-38.91421a96.287725 96.287725 0 0 1 29.351958-69.513418s12.306203-12.971403 16.630004-16.630004a102.523977 102.523977 0 0 1 26.109107-8.897053 95.622525 95.622525 0 0 1 35.006159-102.108226 336.674438 336.674438 0 0 0-179.021997-51.469864H338.503738A339.335238 339.335238 0 0 0 0 903.349319v20.205455c0 97.784425 149.670039 97.784425 338.503738 97.784425h200.890452c54.130664 0 106.182578 0 152.49714-2.57765a96.703475 96.703475 0 0 1-8.315002-71.924769M429.386712 538.071274a268.82402 268.82402 0 1 0-268.24197-268.82402 268.65772 268.65772 0 0 0 268.24197 268.82402m623.625162 242.548613a51.553013 51.553013 0 0 1-48.476463-51.054114 47.478662 47.478662 0 0 1 5.737352-22.949406 32.095908 32.095908 0 0 0-12.721953-41.57501l-17.212055-10.227453-16.630004-9.562253a32.012758 32.012758 0 0 0-42.073911 9.562253 51.220413 51.220413 0 0 1-85.478222 0 32.095908 32.095908 0 0 0-42.073911-9.562253l-17.794105 9.562253-16.630004 9.562252a32.012758 32.012758 0 0 0-12.721954 41.575011 47.478662 47.478662 0 0 1 5.737352 22.949406 51.137263 51.137263 0 0 1-48.476463 51.137264v0.6652a31.513858 31.513858 0 0 0-29.351957 31.929608v39.32996a32.428508 32.428508 0 0 0 29.351957 31.929609l0.6652 0.6652a50.638363 50.638363 0 0 1 47.811263 51.054113 47.478662 47.478662 0 0 1-5.737352 22.949406 32.012758 32.012758 0 0 0 12.721954 41.575011l33.758908 19.789705a31.929608 31.929608 0 0 0 42.073911-9.562253 50.305763 50.305763 0 0 1 42.655962-23.032556 51.968764 51.968764 0 0 1 42.739111 23.032556 31.347558 31.347558 0 0 0 42.073911 9.562253l33.842058-19.789705a31.929608 31.929608 0 0 0 12.721954-40.909811 0.58205 0.58205 0 0 0-0.6652-0.6652c-0.6652-0.6652-0.6652-1.3304-1.247251-1.912451l-0.6652-0.6652a52.301364 52.301364 0 0 1-3.824901-19.789705 51.137263 51.137263 0 0 1 47.811263-51.137263l0.6652-0.6652a31.513858 31.513858 0 0 0 29.351957-31.929609v-40.24461a29.934008 29.934008 0 0 0-28.104707-31.264408m-99.780026 78.49362a84.064672 84.064672 0 0 1-13.969204 24.279806 80.322921 80.322921 0 0 1-46.564012 26.857457 106.099428 106.099428 0 0 1-14.052353 1.247251 103.521777 103.521777 0 0 1-13.969204-1.247251 79.990321 79.990321 0 0 1-46.564012-26.857457 71.509019 71.509019 0 0 1-14.052354-24.279806 74.835019 74.835019 0 0 1-5.072151-26.774307 91.465024 91.465024 0 0 1 4.406951-26.857457 71.509019 71.509019 0 0 1 14.052354-24.279806 76.74747 76.74747 0 0 1 47.146062-26.774307 96.786625 96.786625 0 0 1 13.969204-1.24725 95.539375 95.539375 0 0 1 14.052353 1.24725 78.74307 78.74307 0 0 1 61.198416 51.054113 73.338319 73.338319 0 0 1 4.490101 26.857457 74.835019 74.835019 0 0 1-5.072151 26.774307m0 0" fill="#38DF92" p-id="5627"></path></svg>